<svg width="183" height="45" viewBox="0 0 183 45" fill="none" xmlns="http://www.w3.org/2000/svg">
<g clip-path="url(#clip0_153_198087)">
<circle cx="23.5" cy="23.4998" r="17.5" fill="#EFC368"/>
<path d="M9.79512 42.7418C9.34023 42.4033 9.31895 41.6825 9.74864 41.1504L20.897 27.3735L21.6772 27.954L11.3571 42.3414C10.9578 42.9017 10.25 43.0802 9.79512 42.7418Z" fill="#214842"/>
<path d="M26.6771 42.8479C24.3476 41.406 22.6473 39.3633 21.68 36.619C21.6593 36.5586 21.6359 36.5018 21.6151 36.4414C21.4922 39.036 20.3226 40.6907 20.2435 42.0699C19.132 40.0735 18.4588 38.1106 18.4647 36.206C18.1821 36.2953 17.9437 36.5019 17.8208 36.958C17.3874 35.131 17.6447 32.9512 18.3642 30.5317C18.3464 30.5407 18.3321 30.5524 18.317 30.5578C16.2065 31.901 14.1964 32.7376 12.3296 32.8201C12.7376 32.5789 12.8705 32.2927 12.875 31.9938C11.0458 32.5244 8.97337 32.4184 6.74791 31.9002C8.04923 31.4476 9.32012 29.8637 11.7803 29.0303C11.6909 29.0245 11.5988 29.0222 11.5182 29.0119C8.64916 28.8206 6.24349 27.758 4.23021 25.933C4.69937 26.0793 5.11342 26.0499 5.44359 25.7948C1.69403 23.2492 0.824472 20.6681 0.188852 18.0841C0.246002 18.1328 0.303978 18.1877 0.364647 18.239C2.42593 19.949 7.42129 20.651 12.0076 22.6794C11.9954 22.659 11.9796 22.6359 11.9709 22.6182C8.85487 17.65 8.34457 13.0834 9.54543 8.78741C9.58318 9.21335 9.74327 9.53553 10.0257 9.75395C11.6092 4.78897 13.794 2.1021 16.3564 0.847511C14.6956 3.40296 20.6028 11.3757 20.0354 18.9763C20.067 18.905 20.0933 18.8408 20.1285 18.7722C21.8813 14.7689 24.9437 11.1591 29.0134 7.86035C28.3949 8.82752 28.0996 9.53433 28.39 10.3354C31.404 6.98018 34.6553 4.90665 38.1701 4.24101C38.4991 7.80318 37.4021 11.5 35.0076 15.3221C35.8577 15.3804 36.4557 14.9017 37.2149 14.0407C35.1295 18.9466 32.4473 22.9381 29.0008 25.7322C29.1119 25.6872 29.2212 25.652 29.3359 25.6097C29.3421 25.6088 29.3448 25.6052 29.3537 25.6007C36.0383 23.3432 44.4318 26.1635 47.0271 24.609L47.0298 24.6054C47.1919 24.5148 47.3285 24.3994 47.444 24.2681C46.9443 27.0771 44.9637 29.9178 40.6276 32.8085C40.9181 33.0162 41.2754 33.084 41.6891 33.0038C37.8727 35.3512 33.3229 36.116 27.6566 34.4662C27.7021 34.5229 27.7477 34.5796 27.7924 34.6301C31.0172 38.5605 33.0746 43.2124 35.3315 44.5604C32.6759 44.6643 29.9551 44.5399 26.4711 41.6346C26.3186 42.0347 26.4036 42.4346 26.6771 42.8479Z" fill="#258F67"/>
<path d="M21.6964 27.3339C21.6964 27.3339 16.6815 25.0813 12.6419 22.5125C9.405 17.4567 8.82341 12.8418 9.98562 8.52346C10.0299 8.95376 10.1971 9.28105 10.4873 9.50533C12.0295 4.51719 14.2143 1.83603 16.8028 0.605255C16.8064 0.60798 7.27498 14.1519 21.6964 27.3339Z" fill="#214842"/>
<path d="M20.7347 26.7685C20.7347 26.7685 18.8112 24.2889 20.2761 18.3905C22.0786 14.3957 25.1468 10.758 29.1883 7.40349C28.563 8.37328 28.2585 9.07826 28.5221 9.86229C31.5371 6.47721 34.7524 4.352 38.1907 3.61065C30.819 11.8745 24.022 19.9355 20.7347 26.7685Z" fill="#214842"/>
<path d="M46.9734 24.4342C38.3251 31.4347 29.6485 31.3625 20.9666 27.3752C22.7954 28.1005 26.1505 27.0664 29.4339 25.6238C29.44 25.6229 29.4427 25.6193 29.4516 25.6147C36.1028 23.294 44.3824 26.0159 46.9734 24.4342Z" fill="#214842"/>
<path d="M35.7432 43.9906C28.1977 39.4093 22.5531 34.0408 20.9998 26.9998C20.9998 26.9998 24.4082 31.2641 28.0546 34.2607C31.3346 38.117 33.4955 42.6236 35.7432 43.9906Z" fill="#214842"/>
<path d="M20.3668 41.3979C19.9237 36.5216 20.2623 31.7313 21.1995 26.9998C21.389 30.1599 21.57 33.3522 21.8533 36.069C21.8345 36.0107 21.8131 35.9559 21.7944 35.8976C21.6233 38.4267 20.4668 40.0586 20.3668 41.3979Z" fill="#214842"/>
<path d="M18.8106 30.5696C16.6844 31.8631 14.6463 32.6483 12.7329 32.6764C13.1445 32.445 13.2725 32.1601 13.2683 31.8585C11.4067 32.3402 9.27681 32.172 6.97768 31.5834C12.1204 30.7173 16.9056 29.3275 21.2743 27.331C20.976 28.0954 19.9814 29.3077 18.8106 30.5696Z" fill="#214842"/>
<path d="M20.9696 27.2397C20.732 27.2913 15.5252 28.3696 11.6631 29.0039C8.78877 28.8184 6.38068 27.7577 4.3675 25.9313C4.83726 26.0771 5.25222 26.0465 5.58362 25.7899C1.83231 23.2444 0.966829 20.6567 0.335772 18.0657C0.392925 18.1144 0.450895 18.1693 0.51157 18.2206C6.50769 23.538 13.1637 27.0346 20.9696 27.2397Z" fill="#214842"/>
<path d="M22.2931 28.0032C21.7944 28.665 20.8543 28.7971 20.1924 28.2984C19.5306 27.7997 19.3985 26.8595 19.8972 26.1977C20.3959 25.5359 21.336 25.4038 21.9979 25.9025C22.6597 26.4012 22.7918 27.3413 22.2931 28.0032Z" fill="#214842"/>
<path d="M57.792 32.9998V13.2598H62.944V20.8758H71.092V13.2598H76.216V32.9998H71.092V25.1038H62.944V32.9998H57.792ZM86.9717 33.3078C85.2917 33.3078 83.8357 33.0184 82.6037 32.4398C81.3904 31.8424 80.4571 31.0024 79.8037 29.9198C79.1504 28.8371 78.8237 27.5584 78.8237 26.0838C78.8237 24.6838 79.1317 23.4424 79.7477 22.3598C80.3824 21.2771 81.2411 20.4371 82.3237 19.8398C83.4251 19.2238 84.6757 18.9158 86.0757 18.9158C87.4571 18.9158 88.6517 19.2051 89.6597 19.7838C90.6864 20.3624 91.4704 21.1931 92.0117 22.2758C92.5717 23.3398 92.8517 24.5904 92.8517 26.0278V27.1198H83.5837C83.7517 28.0158 84.1251 28.6598 84.7037 29.0518C85.2824 29.4438 86.0851 29.6398 87.1117 29.6398C87.8211 29.6398 88.5584 29.5371 89.3237 29.3318C90.1077 29.1078 90.7984 28.7904 91.3957 28.3798L92.6277 31.6558C91.9184 32.1598 91.0504 32.5611 90.0237 32.8598C88.9971 33.1584 87.9797 33.3078 86.9717 33.3078ZM86.2997 22.1358C85.5531 22.1358 84.9371 22.3598 84.4517 22.8078C83.9851 23.2558 83.6864 23.9091 83.5557 24.7678H88.7637C88.7077 23.8904 88.4651 23.2371 88.0357 22.8078C87.6251 22.3598 87.0464 22.1358 86.2997 22.1358ZM94.999 32.9998V19.2238H99.843V21.5478C100.478 19.9611 101.85 19.0931 103.959 18.9438L105.331 18.8318L105.611 23.0318L102.895 23.2838C101.906 23.3771 101.187 23.6571 100.739 24.1238C100.291 24.5718 100.067 25.2438 100.067 26.1398V32.9998H94.999ZM116.212 33.3078C115.297 33.3078 114.457 33.1118 113.692 32.7198C112.926 32.3091 112.357 31.7771 111.984 31.1238V32.9998H107.14V13.2598H112.124V20.8758C112.516 20.2784 113.076 19.8024 113.804 19.4478C114.55 19.0931 115.353 18.9158 116.212 18.9158C117.406 18.9158 118.452 19.2051 119.348 19.7838C120.262 20.3624 120.972 21.1931 121.476 22.2758C121.98 23.3398 122.232 24.6184 122.232 26.1118C122.232 27.5864 121.97 28.8651 121.448 29.9478C120.944 31.0304 120.234 31.8611 119.32 32.4398C118.424 33.0184 117.388 33.3078 116.212 33.3078ZM114.644 29.6398C115.39 29.6398 116.006 29.3598 116.492 28.7998C116.977 28.2398 117.22 27.3438 117.22 26.1118C117.22 24.8611 116.977 23.9651 116.492 23.4238C116.006 22.8638 115.39 22.5838 114.644 22.5838C113.878 22.5838 113.253 22.8638 112.768 23.4238C112.282 23.9651 112.04 24.8611 112.04 26.1118C112.04 27.3438 112.282 28.2398 112.768 28.7998C113.253 29.3598 113.878 29.6398 114.644 29.6398ZM129.291 33.3078C128.227 33.3078 127.284 33.1118 126.463 32.7198C125.66 32.3278 125.026 31.7958 124.559 31.1238C124.111 30.4331 123.887 29.6491 123.887 28.7718C123.887 27.7824 124.148 26.9984 124.671 26.4198C125.194 25.8224 126.034 25.4024 127.191 25.1598C128.348 24.8984 129.888 24.7678 131.811 24.7678H132.875V24.3758C132.875 23.7038 132.698 23.2278 132.343 22.9478C132.007 22.6678 131.419 22.5278 130.579 22.5278C129.87 22.5278 129.086 22.6398 128.227 22.8638C127.368 23.0878 126.528 23.4331 125.707 23.8998L124.447 20.6238C124.914 20.2878 125.511 19.9891 126.239 19.7278C126.967 19.4664 127.732 19.2704 128.535 19.1398C129.338 18.9904 130.094 18.9158 130.803 18.9158C133.099 18.9158 134.798 19.4104 135.899 20.3998C137.019 21.3891 137.579 22.9478 137.579 25.0758V32.9998H132.931V31.0398C132.688 31.7491 132.25 32.3091 131.615 32.7198C130.98 33.1118 130.206 33.3078 129.291 33.3078ZM130.411 30.0598C131.102 30.0598 131.68 29.8358 132.147 29.3878C132.632 28.9398 132.875 28.3518 132.875 27.6238V27.1198H131.811C130.71 27.1198 129.898 27.2411 129.375 27.4838C128.871 27.7078 128.619 28.0718 128.619 28.5758C128.619 29.0051 128.768 29.3598 129.067 29.6398C129.384 29.9198 129.832 30.0598 130.411 30.0598Z" fill="#214842"/>
<path d="M145.849 33.3078C143.945 33.3078 142.564 32.8318 141.705 31.8798C140.846 30.9091 140.417 29.4531 140.417 27.5118V13.2598H145.401V27.3438C145.401 28.6504 145.998 29.3038 147.193 29.3038C147.38 29.3038 147.566 29.2944 147.753 29.2758C147.958 29.2571 148.154 29.2291 148.341 29.1918L148.285 32.9998C147.538 33.2051 146.726 33.3078 145.849 33.3078ZM150.011 16.8438V12.3358H155.247V16.8438H150.011ZM150.151 32.9998V19.2238H155.135V32.9998H150.151ZM163.514 33.3078C162.245 33.3078 161.069 33.1771 159.986 32.9158C158.922 32.6544 158.017 32.2904 157.27 31.8238L158.418 28.6038C159.109 28.9958 159.912 29.3224 160.826 29.5838C161.741 29.8264 162.646 29.9478 163.542 29.9478C164.233 29.9478 164.728 29.8544 165.026 29.6678C165.325 29.4624 165.474 29.2011 165.474 28.8838C165.474 28.6038 165.372 28.3984 165.166 28.2678C164.98 28.1184 164.709 28.0064 164.354 27.9318L161.246 27.4278C160.089 27.2411 159.193 26.8211 158.558 26.1678C157.924 25.5144 157.606 24.6651 157.606 23.6198C157.606 22.6491 157.877 21.8184 158.418 21.1278C158.96 20.4184 159.716 19.8771 160.686 19.5038C161.657 19.1118 162.768 18.9158 164.018 18.9158C165.008 18.9158 165.988 19.0371 166.958 19.2798C167.929 19.5038 168.778 19.8771 169.506 20.3998L168.274 23.5638C167.733 23.1904 167.061 22.8824 166.258 22.6398C165.456 22.3784 164.737 22.2478 164.102 22.2478C163.337 22.2478 162.796 22.3598 162.478 22.5838C162.161 22.7891 162.002 23.0411 162.002 23.3398C162.002 23.8438 162.348 24.1518 163.038 24.2638L166.146 24.7958C167.341 24.9824 168.256 25.3931 168.89 26.0278C169.544 26.6438 169.87 27.4838 169.87 28.5478C169.87 30.0598 169.292 31.2358 168.134 32.0758C166.977 32.8971 165.437 33.3078 163.514 33.3078ZM179.004 33.3078C176.914 33.3078 175.364 32.8224 174.356 31.8518C173.348 30.8811 172.844 29.4158 172.844 27.4558V22.8918H170.268V19.2238H172.844V15.2198H177.828V19.2238H181.748V22.8918H177.828V27.2878C177.828 28.6318 178.51 29.3038 179.872 29.3038C180.096 29.3038 180.339 29.2851 180.6 29.2478C180.88 29.1918 181.188 29.1171 181.524 29.0238L182.196 32.6078C181.767 32.8318 181.263 32.9998 180.684 33.1118C180.106 33.2424 179.546 33.3078 179.004 33.3078Z" fill="#258F67"/>
</g>
<defs>
<clipPath id="clip0_153_198087">
<rect width="183" height="45" fill="white"/>
</clipPath>
</defs>
</svg>
